<?xml version="1.0" encoding="UTF-8" standalone="no"?>
<!-- Created with Inkscape (http://www.inkscape.org/) -->

<svg
   xmlns:dc="http://purl.org/dc/elements/1.1/"
   xmlns:cc="http://creativecommons.org/ns#"
   xmlns:rdf="http://www.w3.org/1999/02/22-rdf-syntax-ns#"
   xmlns:svg="http://www.w3.org/2000/svg"
   xmlns="http://www.w3.org/2000/svg"
   xmlns:sodipodi="http://sodipodi.sourceforge.net/DTD/sodipodi-0.dtd"
   xmlns:inkscape="http://www.inkscape.org/namespaces/inkscape"
   width="45.735119mm"
   height="45.735119mm"
   viewBox="0 0 45.735119 45.735119"
   version="1.1"
   id="svg3741"
   inkscape:version="0.92.4 (5da689c313, 2019-01-14)"
   sodipodi:docname="logo.svg">
  <defs
     id="defs3735" />
  <sodipodi:namedview
     id="base"
     pagecolor="#ffffff"
     bordercolor="#666666"
     borderopacity="1.0"
     inkscape:pageopacity="0.0"
     inkscape:pageshadow="2"
     inkscape:zoom="1.4"
     inkscape:cx="45.578539"
     inkscape:cy="90.891346"
     inkscape:document-units="mm"
     inkscape:current-layer="g3837"
     showgrid="false"
     inkscape:pagecheckerboard="true"
     fit-margin-top="0"
     fit-margin-left="0"
     fit-margin-right="0"
     fit-margin-bottom="0"
     inkscape:window-width="1600"
     inkscape:window-height="837"
     inkscape:window-x="-8"
     inkscape:window-y="497"
     inkscape:window-maximized="1" />
  <metadata
     id="metadata3738">
    <rdf:RDF>
      <cc:Work
         rdf:about="">
        <dc:format>image/svg+xml</dc:format>
        <dc:type
           rdf:resource="http://purl.org/dc/dcmitype/StillImage" />
        <dc:title></dc:title>
      </cc:Work>
    </rdf:RDF>
  </metadata>
  <g
     inkscape:label="Layer 1"
     inkscape:groupmode="layer"
     id="layer1"
     transform="translate(-18.894876,-17.276326)">
    <g
       id="g3837"
       transform="translate(-37.612565,-130.04511)">
      <circle
         style="fill:#ffffff;stroke-width:0.31386846"
         r="22.867559"
         cy="170.189"
         cx="79.375"
         id="path3817" />
      <g
         transform="translate(-62.013274,82.127614)"
         id="g3781">
        <path
           inkscape:connector-curvature="0"
           id="path3813"
           d="m 129.39383,101.97405 c -0.097,-0.097 -0.17639,-5.276233 -0.17639,-11.509376 V 79.131688 h 4.1319 c 3.80578,0 4.12216,0.03655 4.00845,0.463021 -0.0679,0.254661 -1.79905,3.231224 -3.847,6.614583 l -3.72356,6.151563 3.61771,-0.0046 3.61771,-0.0046 0.9642,-1.649023 c 1.74742,-2.988531 6.10728,-10.368748 6.48382,-10.975586 0.34118,-0.549851 0.56592,-0.596148 2.94297,-0.606244 l 2.57359,-0.01093 1.53222,-2.643805 c 1.95787,-3.37827 2.03966,-3.286812 2.03966,2.280747 V 83.3577 l -1.78594,2.913107 -1.78594,2.913107 -2.54696,9.79e-4 -2.54695,9.62e-4 -3.23914,5.490104 c -1.78152,3.019558 -3.52435,5.936591 -3.87294,6.482291 l -0.63381,0.99219 h -3.78861 c -2.08373,0 -3.86798,-0.0794 -3.96499,-0.17639 z"
           style="fill:#eaf3f6;stroke-width:0.26458335" />
        <path
           inkscape:connector-curvature="0"
           id="path3811"
           d="m 129.3412,101.82673 c -0.0713,-0.18585 -0.0986,-5.3385 -0.0606,-11.450331 l 0.0691,-11.112419 4.0349,-0.07304 c 4.06,-0.07349 4.59058,0.04959 3.79369,0.880016 -0.13266,0.138245 -1.63367,2.573073 -3.33557,5.410729 -1.7019,2.837657 -3.32948,5.546329 -3.61684,6.019271 l -0.52246,0.859896 h 3.68976 3.68976 l 3.89792,-6.614583 3.89791,-6.614584 2.55422,-0.0044 2.55421,-0.0044 1.42974,-2.386353 c 0.78636,-1.312493 1.5305,-2.448623 1.65365,-2.524733 0.12315,-0.07611 0.2239,2.03204 0.2239,4.684776 v 4.823157 l -1.73633,2.723702 -1.73634,2.723702 -2.54567,0.07553 -2.54568,0.07553 -3.76956,6.35 -3.76955,6.350004 -3.86026,0.0732 c -2.94221,0.0558 -3.8911,-0.007 -3.98993,-0.26467 z"
           style="fill:#d6e7f1;stroke-width:0.26458335" />
        <path
           inkscape:connector-curvature="0"
           id="path3809"
           d="m 129.28729,90.574918 0.0624,-11.310938 4.0349,-0.07304 c 2.21919,-0.04017 4.03489,0.02465 4.03489,0.144038 0,0.119392 -1.40701,2.533509 -3.12669,5.364704 -1.71968,2.831196 -3.4574,5.713175 -3.8616,6.404399 l -0.73491,1.256771 h 3.7024 3.7024 l 3.92717,-6.614583 3.92718,-6.614584 h 2.52409 2.5241 l 1.41182,-2.384776 c 0.7765,-1.311626 1.51694,-2.449747 1.64543,-2.529156 0.13179,-0.08145 0.23361,1.928454 0.23361,4.611121 v 4.755502 l -1.65138,2.668446 -1.65138,2.668447 h -2.52343 -2.52343 l -3.82884,6.477422 -3.82883,6.477429 -4.03119,0.005 -4.03118,0.005 z"
           style="fill:#cee0ec;stroke-width:0.26458335" />
        <path
           inkscape:connector-curvature="0"
           id="path3807"
           d="M 129.48202,90.508772 V 79.131688 h 3.96875 c 2.18282,0 3.96875,0.092 3.96875,0.204447 0,0.112446 -1.7264,3.04631 -3.83645,6.519697 -2.11006,3.473387 -3.83646,6.357949 -3.83646,6.410136 0,0.05219 1.66047,0.09489 3.68994,0.09489 h 3.68994 l 3.12308,-5.301087 c 1.71769,-2.915598 3.48161,-5.862395 3.91982,-6.548438 l 0.79673,-1.24735 2.51205,-0.07495 2.51205,-0.07495 1.58601,-2.570887 1.586,-2.570886 0.072,4.797429 0.072,4.797428 -1.65949,2.673062 -1.6595,2.673061 -2.53444,0.004 -2.53444,0.004 -3.81556,6.478302 -3.81556,6.478308 -3.9026,0.004 -3.90261,0.004 z"
           style="fill:#c3dde9;stroke-width:0.26458335" />
        <path
           inkscape:connector-curvature="0"
           id="path3805"
           d="M 129.48202,90.515845 V 79.131688 h 3.82085 c 4.76343,0 4.73724,-0.674632 0.26019,6.702511 -2.09905,3.458744 -3.81645,6.342182 -3.81645,6.40764 0,0.06546 1.66342,0.119016 3.69649,0.119016 h 3.69648 l 3.55686,-6.019271 c 4.76642,-8.066197 3.94819,-7.209896 6.8893,-7.209896 h 2.46859 l 1.55395,-2.579687 1.55395,-2.579688 0.0724,4.736739 0.0724,4.736739 -1.65991,2.736986 -1.65992,2.736985 -2.54913,7.55e-4 -2.54912,7.55e-4 -3.80672,6.416146 -3.80672,6.416142 -3.89676,0.0732 -3.89676,0.0732 z"
           style="fill:#b3d2e2;stroke-width:0.26458335" />
        <path
           inkscape:connector-curvature="0"
           id="path3803"
           d="M 129.48202,90.648136 V 79.396271 h 3.95845 3.95844 l -3.82615,6.367154 c -2.10439,3.501935 -3.82615,6.422235 -3.82615,6.489557 0,0.06732 1.69395,0.08937 3.76433,0.04899 l 3.76434,-0.07341 3.75642,-6.35 3.75642,-6.35 2.59839,-0.132292 2.5984,-0.132291 1.50046,-2.469437 c 0.82525,-1.35819 1.56991,-2.538893 1.65481,-2.623785 0.0849,-0.08489 0.15341,1.978856 0.15226,4.586104 l -0.002,4.740451 -1.653,2.645834 -1.65301,2.645833 -2.59851,0.132292 -2.59852,0.132291 -3.76109,6.35 -3.7611,6.349998 -3.89155,0.0732 -3.89156,0.0732 z"
           style="fill:#98c2da;stroke-width:0.26458335" />
        <path
           inkscape:connector-curvature="0"
           id="path3801"
           d="M 129.48202,90.648136 V 79.396271 h 3.96692 3.96692 l -3.73555,6.151563 c -2.05456,3.38336 -3.79288,6.300391 -3.86294,6.482292 -0.0984,0.255474 0.73697,0.32798 3.67124,0.318649 l 3.79862,-0.01208 3.79011,-6.46087 3.79011,-6.460869 2.55118,-0.07549 2.55117,-0.07549 1.59622,-2.585622 1.59621,-2.585622 0.0724,4.673717 0.0724,4.673716 -1.66952,2.674406 -1.66953,2.674405 -2.61367,0.132292 -2.61368,0.132291 -3.76365,6.35 -3.76366,6.350001 -3.86565,0.0732 -3.86566,0.0732 z"
           style="fill:#8ab9d4;stroke-width:0.26458335" />
        <path
           inkscape:connector-curvature="0"
           id="path3799"
           d="m 129.48202,97.130428 v -4.769573 l 3.90261,-0.004 3.9026,-0.004 3.81556,-6.478302 3.81556,-6.478302 h 2.5397 2.5397 l 1.58224,-2.655487 1.58224,-2.655487 0.0724,4.664204 0.0724,4.664204 -1.68651,2.687637 -1.68652,2.687638 -2.61116,0.132292 -2.61116,0.132291 -3.75096,6.35 -3.75097,6.349997 -3.86381,0.0732 -3.86382,0.0732 z m 0,-11.384156 v -6.350001 h 3.83646 c 2.11005,0 3.83646,0.07367 3.83646,0.163713 0,0.223709 -7.43014,12.536288 -7.56514,12.536288 -0.0593,0 -0.10778,-2.8575 -0.10778,-6.35 z"
           style="fill:#6faacc;stroke-width:0.26458335" />
        <path
           inkscape:connector-curvature="0"
           id="path3797"
           d="m 129.48202,97.123355 v -4.7625 l 3.90261,-0.0012 3.9026,-0.0012 3.82925,-6.481043 3.82925,-6.481044 h 2.52897 2.52896 l 1.41182,-2.384775 c 0.7765,-1.311627 1.51694,-2.449747 1.64543,-2.529157 0.13161,-0.08134 0.23361,1.828334 0.23361,4.373707 v 4.518088 l -1.74111,2.773569 -1.7411,2.773569 -2.55837,0.0057 -2.55837,0.0057 -3.79901,6.476579 -3.799,6.476582 h -3.80777 -3.80777 z m 0,-11.318212 v -6.408872 h 3.83646 c 2.11005,0 3.83646,0.06671 3.83646,0.14824 0,0.149247 -6.63543,11.174902 -7.31064,12.147611 -0.31104,0.44808 -0.36228,-0.384532 -0.36228,-5.886979 z"
           style="fill:#5398c3;stroke-width:0.26458335" />
        <path
           inkscape:connector-curvature="0"
           id="path3795"
           d="m 129.4818,97.189501 -2.3e-4,-4.696354 h 3.88121 3.8812 l 3.85809,-6.547877 3.85808,-6.547878 2.54709,-5.6e-4 2.54709,-5.61e-4 1.55395,-2.579687 1.55395,-2.579688 0.0728,4.490055 0.0728,4.490055 -1.70501,2.785987 -1.705,2.785987 -2.60114,0.07691 -2.60113,0.07691 -3.81556,6.471527 -3.81556,6.471533 h -3.79122 -3.79121 z m 2.2e-4,-11.384358 v -6.408872 h 3.83646 c 2.11005,0 3.83646,0.05769 3.83646,0.128204 0,0.129565 -6.65831,11.201896 -7.31697,12.167647 -0.30277,0.443927 -0.35595,-0.435524 -0.35595,-5.886979 z"
           style="fill:#4c94c1;stroke-width:0.26458335" />
        <path
           inkscape:connector-curvature="0"
           id="path3793"
           d="m 129.48202,97.26272 v -4.623135 l 3.89006,-0.07322 3.89006,-0.07322 3.84901,-6.543328 3.849,-6.543327 2.5508,-0.0051 2.55081,-0.0051 1.41794,-2.396 1.41795,-2.396 0.0724,4.523157 0.0724,4.523157 -1.61948,2.635343 -1.61948,2.635344 -2.554,0.0057 -2.554,0.0057 -3.82582,6.476592 -3.82582,6.476597 h -3.78096 -3.78095 z m 0,-11.472351 v -6.394098 h 3.83646 c 2.11005,0 3.83646,0.05674 3.83646,0.126087 0,0.120653 -7.36101,12.324055 -7.5712,12.551865 -0.0559,0.06063 -0.10172,-2.767101 -0.10172,-6.283854 z"
           style="fill:#4690be;stroke-width:0.26458335" />
        <path
           inkscape:connector-curvature="0"
           id="path3791"
           d="m 129.48202,97.26272 v -4.623135 l 3.89639,-0.07322 3.89639,-0.07322 3.84267,-6.54183 3.84268,-6.541829 2.57413,-0.0066 2.57413,-0.0066 1.39462,-2.386871 1.39462,-2.386872 0.0723,4.487463 0.0723,4.487463 -1.62879,2.661909 -1.6288,2.661909 -2.54457,0.0046 -2.54457,0.0046 -3.83351,6.477673 -3.83351,6.47768 h -3.77326 -3.77327 z m 0,-11.472351 v -6.394098 h 3.83646 c 2.11005,0 3.83646,0.04987 3.83646,0.110821 0,0.109461 -7.37793,12.353857 -7.5724,12.567131 -0.0553,0.06063 -0.10052,-2.767101 -0.10052,-6.283854 z"
           style="fill:#3185bc;stroke-width:0.26458335" />
        <path
           inkscape:connector-curvature="0"
           id="path3789"
           d="m 129.48202,97.26272 v -4.623135 l 3.8943,-0.07322 3.89429,-0.07322 3.85275,-6.482292 3.85274,-6.482292 2.56301,-0.07562 2.56301,-0.07562 1.4629,-2.437919 1.4629,-2.43792 0.001,4.55035 0.001,4.55035 -1.52135,2.510507 -1.52136,2.510506 -2.62819,0.08289 -2.6282,0.08289 -3.85409,6.547022 -3.8541,6.547013 -3.77031,0.001 -3.77032,10e-4 z m 0,-11.472351 v -6.394098 h 3.84577 3.84577 l -0.31756,0.595313 c -0.34538,0.647469 -7.12685,11.902417 -7.28018,12.082639 -0.0516,0.06063 -0.0938,-2.767101 -0.0938,-6.283854 z"
           style="fill:#257cb7;stroke-width:0.26458335" />
        <path
           inkscape:connector-curvature="0"
           id="path3787"
           d="m 129.48202,97.255647 v -4.630209 l 3.90261,-0.0047 3.9026,-0.0047 3.85782,-6.543696 3.85782,-6.543696 2.61283,-0.132292 2.61284,-0.132291 1.33455,-2.240452 1.33456,-2.240453 0.0724,4.399944 0.0724,4.399943 -1.55634,2.470718 -1.55633,2.470717 -2.60971,0.132291 -2.6097,0.132292 -3.8439,6.539274 -3.84389,6.539273 -3.77031,0.009 -3.77032,0.009 z m 0,-11.464763 c 0,-4.800413 0.0754,-6.175555 0.34408,-6.278672 0.18924,-0.07262 1.90538,-0.09865 3.81364,-0.05784 l 3.46956,0.07419 -3.57206,5.953125 c -1.96463,3.274219 -3.68077,6.066235 -3.81364,6.20448 -0.14599,0.151903 -0.24158,-2.180613 -0.24158,-5.895283 z"
           style="fill:#1374b5;stroke-width:0.26458335" />
        <path
           inkscape:connector-curvature="0"
           id="path3785"
           d="m 129.74661,97.255647 v -4.630209 h 3.78952 3.78952 l 3.31731,-5.622396 c 1.82451,-3.092317 3.53818,-6.009349 3.80814,-6.482291 l 0.49085,-0.859896 h 2.5347 2.5347 l 1.44315,-2.377894 1.44315,-2.377894 0.0728,4.246067 0.0728,4.246068 -1.63679,2.629743 -1.63679,2.629743 -2.53703,0.0054 -2.53702,0.0054 -3.91058,6.609147 -3.91058,6.609155 h -3.5639 -3.5639 z m 0,-11.721042 v -5.87375 h 3.58749 c 1.97312,0 3.54063,0.0893 3.48336,0.198437 -0.36522,0.696012 -6.66837,11.094046 -6.84852,11.297709 -0.12228,0.138245 -0.22233,-2.391833 -0.22233,-5.622396 z"
           style="fill:#006cb8;stroke-width:0.26458335" />
        <path
           inkscape:connector-curvature="0"
           id="path3783"
           d="m 136.52224,101.50944 c 0.0794,-0.20703 0.31384,-0.44142 0.52087,-0.52087 0.20703,-0.0794 0.37641,-0.28676 0.37641,-0.46072 0,-0.635479 0.90526,-2.346161 1.24155,-2.346161 0.19027,0 0.34595,-0.178594 0.34595,-0.396875 0,-0.218282 0.13276,-0.396875 0.29502,-0.396875 0.19214,0 0.16293,0.207583 -0.0838,0.595312 -0.20832,0.327422 -0.82595,1.339453 -1.3725,2.248959 -0.88754,1.47694 -1.70163,2.26255 -1.32353,1.27723 z m 2.88613,-5.188486 c 0.24474,-0.47328 0.53728,-0.726787 0.71322,-0.618054 0.18682,0.11546 0.24304,0.0404 0.15045,-0.200871 -0.18532,-0.482952 0.44524,-1.380465 0.87032,-1.238771 0.2281,0.07603 0.20553,0.216849 -0.0806,0.502999 -0.21857,0.218572 -0.48566,0.675472 -0.59353,1.015335 -0.13292,0.41881 -0.26019,0.514259 -0.39496,0.296204 -0.14645,-0.236958 -0.24121,-0.211313 -0.35964,0.09733 -0.0884,0.230483 -0.0385,0.41906 0.11108,0.41906 0.14954,0 0.19831,0.119062 0.10838,0.264583 -0.45958,0.743606 -0.93523,0.25606 -0.5247,-0.537818 z m 1.9799,-2.91738 c 0,-0.29963 0.11907,-0.471197 0.26459,-0.381261 0.14552,0.08994 0.27369,0.0672 0.28482,-0.05053 0.0713,-0.753771 0.25945,-1.178436 0.76038,-1.716121 0.37173,-0.399002 0.51735,-0.81026 0.42177,-1.191106 -0.16186,-0.644884 0.23762,-1.066816 0.54269,-0.573198 0.12931,0.20922 0.26986,0.109466 0.42084,-0.29868 0.12469,-0.337049 0.29451,-0.545001 0.3774,-0.462115 0.14013,0.140133 -2.75282,5.217792 -2.97279,5.217792 -0.0548,0 -0.0997,-0.245152 -0.0997,-0.544781 z M 129.8789,92.890022 c 0.0962,-0.155585 1.65884,-0.264584 3.79327,-0.264584 3.30233,0 3.67062,-0.04773 4.08284,-0.529166 0.2492,-0.291042 0.38799,-0.529167 0.30842,-0.529167 -0.0796,0 0.0663,-0.357187 0.32422,-0.79375 0.25789,-0.436562 0.5693,-0.79375 0.69203,-0.79375 0.12274,0 0.15466,-0.110836 0.0709,-0.246301 -0.0837,-0.135466 -0.0394,-0.316002 0.0984,-0.401191 0.53358,-0.329768 0.57801,0.446994 0.0469,0.819032 -0.30925,0.216608 -0.50001,0.49458 -0.42391,0.617715 0.0761,0.123135 0.0114,0.266212 -0.14383,0.317948 -0.15521,0.05174 -0.29329,0.484161 -0.30684,0.960943 -0.0161,0.567451 -0.11441,0.777113 -0.28453,0.606999 -0.17011,-0.170114 -0.39108,-0.128669 -0.63974,0.119989 -0.45968,0.459679 -7.90055,0.572279 -7.61811,0.115283 z m 0.14034,-2.315104 c -0.004,-0.327422 0.11101,-0.595313 0.25653,-0.595313 0.14552,0 0.26459,-0.245152 0.26459,-0.544782 0,-0.365407 0.10889,-0.479359 0.33073,-0.346086 0.22472,0.135011 0.21434,0.05521 -0.0324,-0.248968 -0.31291,-0.385759 -0.30377,-0.447664 0.0661,-0.447664 0.25289,0 0.42928,-0.217436 0.42928,-0.529167 0,-0.291041 0.14882,-0.499401 0.33073,-0.463021 0.1819,0.03638 0.29801,-0.09153 0.25802,-0.284249 -0.04,-0.192718 0.0493,-0.274988 0.19844,-0.182823 0.27024,0.167019 0.32978,-0.02253 0.341,-1.085749 0.004,-0.405684 0.13589,-0.526645 0.47618,-0.437659 0.40563,0.106076 0.27977,0.437628 -0.91593,2.412717 -0.76241,1.259359 -1.52323,2.527868 -1.69073,2.818909 -0.29641,0.515043 -0.30475,0.513277 -0.31258,-0.06615 z m 9.69361,-1.5875 c -0.12872,-0.214362 4.08793,-7.468793 4.34331,-7.472337 0.0849,-0.0012 0.15434,0.169836 0.15434,0.380033 0,0.210197 -0.0695,0.374691 -0.15434,0.365543 -0.46164,-0.04975 -0.54272,0.09671 -0.30227,0.545992 0.21549,0.402643 0.1658,0.526575 -0.25527,0.636688 -0.31647,0.08276 -0.52285,0.361538 -0.52285,0.706279 0,0.313254 -0.1177,0.49681 -0.26155,0.407904 -0.14998,-0.09269 -0.19434,0.01351 -0.10398,0.248968 0.0998,0.260048 0.0102,0.410617 -0.24436,0.410617 -0.26485,0 -0.46491,0.372767 -0.58659,1.092991 -0.1071,0.633921 -0.26643,0.960674 -0.37935,0.777962 -0.24401,-0.394803 -1.18664,0.96054 -1.13699,1.634776 0.0342,0.463917 -0.3263,0.637292 -0.5501,0.264584 z m 9.88953,-0.595313 c -0.01,-0.79926 0.3235,-1.5875 0.67099,-1.5875 0.45599,0 0.98976,-0.983651 0.80087,-1.475883 -0.0794,-0.20691 -0.0418,-0.3762 0.0836,-0.3762 0.12539,0 0.28899,0.158999 0.36356,0.353332 0.16969,0.442205 -0.83977,2.079512 -1.16005,1.881565 -0.12968,-0.08014 -0.17498,0.01271 -0.10068,0.206349 0.0743,0.193634 -0.0423,0.586771 -0.25919,0.873637 -0.2966,0.392338 -0.39549,0.423237 -0.39911,0.1247 z M 133.3255,84.754084 c 0.10776,-0.254661 0.18666,-0.681574 0.17534,-0.948694 -0.013,-0.307203 0.11272,-0.434515 0.3422,-0.346456 0.48415,0.185786 0.98143,-0.447465 0.77462,-0.986419 -0.11966,-0.31183 -0.0147,-0.43041 0.38101,-0.43041 0.50746,0 0.47914,0.112535 -0.39949,1.5875 -0.86665,1.454844 -1.73958,2.225523 -1.27368,1.124479 z m 18.91911,-0.645843 c -0.005,-0.246074 0.11856,-0.525887 0.27377,-0.621807 0.46635,-0.28822 0.53173,0.01562 0.12037,0.559361 -0.33866,0.447639 -0.38676,0.455259 -0.39414,0.06245 z m -16.80946,-3.124469 c -0.0899,-0.145521 0.0887,-0.264584 0.39687,-0.264584 0.30822,0 0.48682,0.119063 0.39688,0.264584 -0.0899,0.14552 -0.26853,0.264583 -0.39688,0.264583 -0.12834,0 -0.30693,-0.119063 -0.39687,-0.264583 z m 9.02446,-0.506383 c 0.52448,-0.887876 0.9818,-0.942731 1.11007,-0.133151 0.067,0.422609 0.0345,0.441024 -0.19438,0.110367 -0.17541,-0.253367 -0.27622,-0.280651 -0.27881,-0.07546 -0.002,0.176781 -0.25564,0.456065 -0.56313,0.620631 -0.55829,0.298789 -0.5584,0.298051 -0.0737,-0.522392 z m -8.30237,-0.336977 c 0.0576,-0.172806 0.2462,-0.361348 0.4191,-0.418983 0.19335,-0.06445 0.25248,0.05651 0.1536,0.314192 -0.18456,0.480937 -0.73144,0.581004 -0.5727,0.104791 z m 13.98317,-0.524746 c -0.0172,-0.146391 2.47271,-4.333374 2.7922,-4.695263 0.0535,-0.06063 0.0973,0.273815 0.0973,0.743219 0,0.558817 -0.10156,0.790697 -0.29416,0.671659 -0.40186,-0.248358 -0.78438,0.428441 -0.60851,1.076615 0.10439,0.384724 0.0757,0.43118 -0.10526,0.17019 -0.17385,-0.250797 -0.30338,-0.27073 -0.42982,-0.06615 -0.0995,0.161058 -0.096,0.292831 0.008,0.292831 0.10391,0 -0.0198,0.230623 -0.27488,0.512495 -0.26469,0.292481 -0.37725,0.65254 -0.26219,0.838713 0.13867,0.224377 0.0695,0.275522 -0.22157,0.163827 -0.23275,-0.08931 -0.48101,-0.02025 -0.55168,0.153475 -0.0707,0.173726 -0.1379,0.235999 -0.14939,0.138385 z"
           style="fill:#006cb6;stroke-width:0.26458335" />
      </g>
    </g>
  </g>
</svg>
